<mxfile host="app.diagrams.net" modified="2023-11-15T06:15:34.742Z" agent="Mozilla/5.0 (Macintosh; Intel Mac OS X 10_15_7) AppleWebKit/537.36 (KHTML, like Gecko) Chrome/118.0.0.0 Safari/537.36" version="22.1.1" etag="KBlQewpOeUMM0qnvueuq" type="github">
  <diagram name="第 1 页" id="gzy50MBfgo9wcRaisAoC">
    <mxGraphModel>
      <root>
        <mxCell id="0" />
        <mxCell id="1" parent="0" />
      </root>
    </mxGraphModel>
  </diagram>
</mxfile>
